<svg width="20" height="15" viewBox="0 0 20 15" fill="none" xmlns="http://www.w3.org/2000/svg">
<g clip-path="url(#clip0_540_946)">
<path d="M2.18896 9.8519C3.4277 12.5648 6.64122 14.4982 10.4108 14.4982C14.1803 14.4982 17.3939 12.5648 18.6326 9.8519L10.4108 9.23242L2.18896 9.8519Z" fill="#FFDA44"/>
<path d="M10.4111 0.25C6.64273 0.25 3.43023 2.22201 2.19189 4.98919L10.4111 5.62106L18.6303 4.98916C17.3919 2.22201 14.1794 0.25 10.4111 0.25Z" fill="black"/>
<path d="M2.18935 4.89844C1.83695 5.67852 1.64404 6.52226 1.64404 7.40308C1.64404 8.28389 1.83695 9.12763 2.18935 9.90771H18.633C18.9854 9.12763 19.1783 8.28389 19.1783 7.40308C19.1783 6.52226 18.9854 5.67852 18.633 4.89844H2.18935Z" fill="#D80027"/>
</g>
<defs>
<clipPath id="clip0_540_946">
<rect width="20" height="15" fill="white"/>
</clipPath>
</defs>
</svg>
