<svg width="20" height="15" viewBox="0 0 20 15" fill="none" xmlns="http://www.w3.org/2000/svg">
<g clip-path="url(#clip0_540_951)">
<path d="M10 15C15.5228 15 20 11.6421 20 7.5C20 3.35786 15.5228 0 10 0C4.47715 0 0 3.35786 0 7.5C0 11.6421 4.47715 15 10 15Z" fill="#F0F0F0"/>
<path d="M0.3125 7.87988H19.7266C19.7266 8.39683 19.7726 9.05877 19.3555 9.53516L0.449219 9.44727L0.3125 7.87988Z" fill="#D80027"/>
<path d="M9.84375 3.97656H18.8281C18.2148 3.40444 18.0628 2.95024 17.1484 2.53392L9.84375 2.48242V3.97656Z" fill="#D80027"/>
<path d="M10.7812 6.65039H19.7656C19.5868 6.00894 19.9923 5.4035 19.078 4.92188H10.7812V6.65039Z" fill="#D80027"/>
<path d="M10.0002 14.9996C12.3537 14.9996 14.5169 14.3895 16.2251 13.3691H3.77539C5.48359 14.3895 7.64676 14.9996 10.0002 14.9996Z" fill="#D80027"/>
<path d="M2.08962 11.9531H17.8645C18.3188 11.4938 18.9055 10.9039 19.1372 10.3711L1.05127 10.459C1.28299 10.9918 1.63532 11.4938 2.08962 11.9531Z" fill="#D80027"/>
<path d="M5.00068 1.17123H6.0152L5.07152 1.6331L5.43199 2.38043L4.48835 1.91856L3.54471 2.38043L3.85609 1.73481C3.02521 2.20107 2.29697 2.74734 1.69684 3.35602H2.02191L1.42122 3.65001C1.32763 3.75519 1.23787 3.86203 1.15186 3.97046L1.4387 4.56521L0.903542 4.30327C0.770513 4.49314 0.648835 4.68729 0.539464 4.88549L0.855488 5.5408H2.02191L1.07823 6.00267L1.4387 6.75L0.495063 6.28813L-0.0701881 6.56481C-0.126765 6.8712 -0.15625 7.18327 -0.15625 7.5H10.9766C10.9766 3.35789 10.9766 2.86957 10.9766 0C8.77731 0 6.72718 0.429785 5.00068 1.17123V1.17123ZM5.43199 6.75L4.48835 6.28813L3.54471 6.75L3.90518 6.00267L2.9615 5.5408H4.12793L4.48835 4.79347L4.84878 5.5408H6.0152L5.07152 6.00267L5.43199 6.75ZM5.07152 3.81788L5.43199 4.56521L4.48835 4.10335L3.54471 4.56521L3.90518 3.81788L2.9615 3.35602H4.12793L4.48835 2.60868L4.84878 3.35602H6.0152L5.07152 3.81788ZM9.42527 6.75L8.48164 6.28813L7.538 6.75L7.89847 6.00267L6.95479 5.5408H8.12121L8.48164 4.79347L8.84206 5.5408H10.0085L9.06481 6.00267L9.42527 6.75ZM9.06481 3.81788L9.42527 4.56521L8.48164 4.10335L7.538 4.56521L7.89847 3.81788L6.95479 3.35602H8.12121L8.48164 2.60868L8.84206 3.35602H10.0085L9.06481 3.81788ZM9.06481 1.6331L9.42527 2.38043L8.48164 1.91856L7.538 2.38043L7.89847 1.6331L6.95479 1.17123H8.12121L8.48164 0.423896L8.84206 1.17123H10.0085L9.06481 1.6331Z" fill="#0052B4"/>
<path d="M10 0.125C12.737 0.125 15.2101 0.957372 16.9961 2.29688C18.782 3.63634 19.875 5.47714 19.875 7.5C19.875 9.52286 18.782 11.3637 16.9961 12.7031C15.2101 14.0426 12.737 14.875 10 14.875C7.26301 14.875 4.78991 14.0426 3.00391 12.7031C1.218 11.3637 0.125 9.52286 0.125 7.5C0.125 5.47714 1.218 3.63634 3.00391 2.29688C4.78991 0.957372 7.26301 0.125 10 0.125Z" stroke="black" stroke-width="0.25"/>
</g>
<defs>
<clipPath id="clip0_540_951">
<rect width="20" height="15" fill="white"/>
</clipPath>
</defs>
</svg>
