<svg width="20" height="15" viewBox="0 0 20 15" fill="none" xmlns="http://www.w3.org/2000/svg">
<path d="M10 0.125C12.7391 0.125 15.2138 0.897065 17 2.13965C18.7865 3.38244 19.8748 5.08759 19.875 6.95605C19.875 8.82456 18.7864 10.5296 17 11.7725C15.2138 13.015 12.7391 13.7881 10 13.7881C7.26091 13.7881 4.78622 13.015 3 11.7725C1.21358 10.5296 0.125 8.82456 0.125 6.95605C0.125181 5.08759 1.21348 3.38244 3 2.13965C4.78622 0.897065 7.26092 0.125 10 0.125Z" fill="#F0F0F0" stroke="black" stroke-width="0.25"/>
<path d="M13.7656 5.44392H11.2553L10.0002 3.93164L8.74518 5.44392H6.23486L7.4901 6.95621L6.23486 8.46849H8.74518L10.0002 9.98077L11.2553 8.46849H13.7656L12.5103 6.95621L13.7656 5.44392ZM11.5422 6.95621L10.7713 7.88523H9.22928L8.45822 6.95621L9.22924 6.02718H10.7712L11.5422 6.95621ZM10.0002 5.09814L10.2872 5.4439H9.71334L10.0002 5.09814ZM7.68717 6.02718H8.26107L7.97412 6.37294L7.68717 6.02718ZM7.68717 7.88523L7.97416 7.53947L8.26111 7.88523H7.68717ZM10.0002 8.81425L9.7133 8.46849H10.2872L10.0002 8.81425ZM12.3133 7.88523H11.7394L12.0263 7.53947L12.3133 7.88523ZM11.7394 6.02718H12.3133L12.0263 6.37294L11.7394 6.02718Z" fill="#0052B4"/>
<path d="M16.2249 1.51172H3.77516C2.86254 2.01737 2.07988 2.63156 1.46777 3.32647H18.5323C17.9202 2.63158 17.1375 2.01737 16.2249 1.51172V1.51172Z" fill="#0052B4"/>
<path d="M3.77516 12.4007H16.2249C17.1375 11.895 17.9202 11.2809 18.5323 10.5859H1.46777C2.07992 11.2808 2.86258 11.895 3.77516 12.4007V12.4007Z" fill="#0052B4"/>
</svg>
